<mxfile host="app.diagrams.net" agent="Mozilla/5.0 (Windows NT 10.0; Win64; x64) AppleWebKit/537.36 (KHTML, like Gecko) Chrome/131.0.0.0 Safari/537.36" scale="1" border="0" version="24.9.2">
  <diagram name="Page-1" id="UToXNZNIILyXTOI91Kaf">
    <mxGraphModel dx="611" dy="378" grid="1" gridSize="10" guides="1" tooltips="1" connect="1" arrows="1" fold="1" page="1" pageScale="1" pageWidth="850" pageHeight="1100" math="0" shadow="0">
      <root>
        <mxCell id="0" />
        <mxCell id="1" parent="0" />
        <mxCell id="4m7BQvXgMmx215IZOo3F-1" value="d" style="rounded=0;whiteSpace=wrap;html=1;fillColor=#f8cecc;strokeColor=#b85450;fontSize=15;" parent="1" vertex="1">
          <mxGeometry x="420" y="280" width="20" height="20" as="geometry" />
        </mxCell>
        <mxCell id="4m7BQvXgMmx215IZOo3F-2" value="d" style="rounded=0;whiteSpace=wrap;html=1;fillColor=#fff2cc;strokeColor=#d6b656;fontSize=15;" parent="1" vertex="1">
          <mxGeometry x="439" y="320" width="20" height="20" as="geometry" />
        </mxCell>
        <mxCell id="4m7BQvXgMmx215IZOo3F-4" value="D" style="rounded=0;whiteSpace=wrap;html=1;fillColor=#f8cecc;strokeColor=#b85450;fontSize=15;" parent="1" vertex="1">
          <mxGeometry x="399" y="320" width="20" height="20" as="geometry" />
        </mxCell>
        <mxCell id="4m7BQvXgMmx215IZOo3F-5" value="d" style="rounded=0;whiteSpace=wrap;html=1;fillColor=#ffe6cc;strokeColor=#d79b00;fontSize=15;" parent="1" vertex="1">
          <mxGeometry x="420" y="360" width="21" height="20" as="geometry" />
        </mxCell>
        <mxCell id="4m7BQvXgMmx215IZOo3F-6" value="d" style="rounded=0;whiteSpace=wrap;html=1;fillColor=#ffe6cc;strokeColor=#d79b00;fontSize=15;" parent="1" vertex="1">
          <mxGeometry x="380" y="360" width="21" height="20" as="geometry" />
        </mxCell>
        <mxCell id="4m7BQvXgMmx215IZOo3F-9" value="" style="endArrow=none;html=1;rounded=0;entryX=0.5;entryY=0;entryDx=0;entryDy=0;exitX=0.5;exitY=1;exitDx=0;exitDy=0;fillColor=#fff2cc;strokeColor=#000000;fontSize=15;" parent="1" source="4m7BQvXgMmx215IZOo3F-1" target="4m7BQvXgMmx215IZOo3F-2" edge="1">
          <mxGeometry width="50" height="50" relative="1" as="geometry">
            <mxPoint x="490" y="370" as="sourcePoint" />
            <mxPoint x="540" y="320" as="targetPoint" />
          </mxGeometry>
        </mxCell>
        <mxCell id="4m7BQvXgMmx215IZOo3F-10" value="" style="endArrow=none;html=1;rounded=0;entryX=0.5;entryY=0;entryDx=0;entryDy=0;exitX=0.5;exitY=1;exitDx=0;exitDy=0;fillColor=#fff2cc;strokeColor=#000000;fontSize=15;" parent="1" source="4m7BQvXgMmx215IZOo3F-1" target="4m7BQvXgMmx215IZOo3F-4" edge="1">
          <mxGeometry width="50" height="50" relative="1" as="geometry">
            <mxPoint x="509" y="320" as="sourcePoint" />
            <mxPoint x="530" y="300" as="targetPoint" />
          </mxGeometry>
        </mxCell>
        <mxCell id="4m7BQvXgMmx215IZOo3F-11" value="" style="endArrow=none;html=1;rounded=0;exitX=0.5;exitY=1;exitDx=0;exitDy=0;fillColor=#fff2cc;strokeColor=#000000;entryX=0.5;entryY=0;entryDx=0;entryDy=0;fontSize=15;" parent="1" source="4m7BQvXgMmx215IZOo3F-4" target="4m7BQvXgMmx215IZOo3F-6" edge="1">
          <mxGeometry width="50" height="50" relative="1" as="geometry">
            <mxPoint x="539" y="330" as="sourcePoint" />
            <mxPoint x="560" y="310" as="targetPoint" />
          </mxGeometry>
        </mxCell>
        <mxCell id="4m7BQvXgMmx215IZOo3F-12" value="" style="endArrow=none;html=1;rounded=0;exitX=0.5;exitY=1;exitDx=0;exitDy=0;entryX=0.5;entryY=0;entryDx=0;entryDy=0;fillColor=#fff2cc;strokeColor=#000000;fontSize=15;" parent="1" source="4m7BQvXgMmx215IZOo3F-4" target="4m7BQvXgMmx215IZOo3F-5" edge="1">
          <mxGeometry width="50" height="50" relative="1" as="geometry">
            <mxPoint x="519" y="330" as="sourcePoint" />
            <mxPoint x="540" y="310" as="targetPoint" />
          </mxGeometry>
        </mxCell>
        <mxCell id="4m7BQvXgMmx215IZOo3F-13" value="d" style="rounded=0;whiteSpace=wrap;html=1;fillColor=#dae8fc;strokeColor=#6c8ebf;fontSize=15;" parent="1" vertex="1">
          <mxGeometry x="525" y="360" width="20" height="20" as="geometry" />
        </mxCell>
        <mxCell id="4m7BQvXgMmx215IZOo3F-14" value="d" style="rounded=0;whiteSpace=wrap;html=1;fillColor=#f8cecc;strokeColor=#b85450;fontSize=15;" parent="1" vertex="1">
          <mxGeometry x="556" y="310" width="20" height="20" as="geometry" />
        </mxCell>
        <mxCell id="4m7BQvXgMmx215IZOo3F-15" value="d" style="rounded=0;whiteSpace=wrap;html=1;fillColor=#fff2cc;strokeColor=#d6b656;fontSize=15;" parent="1" vertex="1">
          <mxGeometry x="586" y="360" width="20" height="20" as="geometry" />
        </mxCell>
        <mxCell id="4m7BQvXgMmx215IZOo3F-18" value="" style="endArrow=none;html=1;rounded=0;entryX=0.5;entryY=1;entryDx=0;entryDy=0;exitX=0.5;exitY=0;exitDx=0;exitDy=0;fillColor=#fff2cc;strokeColor=#000000;fontSize=15;" parent="1" source="4m7BQvXgMmx215IZOo3F-13" target="4m7BQvXgMmx215IZOo3F-14" edge="1">
          <mxGeometry width="50" height="50" relative="1" as="geometry">
            <mxPoint x="577" y="471" as="sourcePoint" />
            <mxPoint x="627" y="421" as="targetPoint" />
          </mxGeometry>
        </mxCell>
        <mxCell id="4m7BQvXgMmx215IZOo3F-19" value="" style="endArrow=none;html=1;rounded=0;entryX=0.5;entryY=0;entryDx=0;entryDy=0;exitX=0.5;exitY=1;exitDx=0;exitDy=0;fillColor=#fff2cc;strokeColor=#000000;fontSize=15;" parent="1" source="4m7BQvXgMmx215IZOo3F-14" target="4m7BQvXgMmx215IZOo3F-15" edge="1">
          <mxGeometry width="50" height="50" relative="1" as="geometry">
            <mxPoint x="596" y="421" as="sourcePoint" />
            <mxPoint x="617" y="401" as="targetPoint" />
          </mxGeometry>
        </mxCell>
        <mxCell id="4m7BQvXgMmx215IZOo3F-22" value="d" style="rounded=0;whiteSpace=wrap;html=1;fillColor=#fff2cc;strokeColor=#d6b656;fontSize=15;" parent="1" vertex="1">
          <mxGeometry x="556" y="360" width="20" height="20" as="geometry" />
        </mxCell>
        <mxCell id="4m7BQvXgMmx215IZOo3F-23" value="" style="endArrow=none;html=1;rounded=0;entryX=0.5;entryY=0;entryDx=0;entryDy=0;exitX=0.5;exitY=1;exitDx=0;exitDy=0;fillColor=#fff2cc;strokeColor=#000000;fontSize=15;" parent="1" source="4m7BQvXgMmx215IZOo3F-14" target="4m7BQvXgMmx215IZOo3F-22" edge="1">
          <mxGeometry width="50" height="50" relative="1" as="geometry">
            <mxPoint x="596" y="421" as="sourcePoint" />
            <mxPoint x="617" y="390" as="targetPoint" />
          </mxGeometry>
        </mxCell>
        <mxCell id="4m7BQvXgMmx215IZOo3F-44" value="q" style="ellipse;whiteSpace=wrap;html=1;aspect=fixed;fillColor=#f8cecc;strokeColor=#b85450;fontSize=15;" parent="1" vertex="1">
          <mxGeometry x="495" y="250" width="30" height="30" as="geometry" />
        </mxCell>
        <mxCell id="4m7BQvXgMmx215IZOo3F-47" value="q" style="ellipse;whiteSpace=wrap;html=1;aspect=fixed;fillColor=#dae8fc;strokeColor=#6c8ebf;fontSize=15;" parent="1" vertex="1">
          <mxGeometry x="354" y="413" width="30" height="30" as="geometry" />
        </mxCell>
        <mxCell id="4m7BQvXgMmx215IZOo3F-57" value="q" style="ellipse;whiteSpace=wrap;html=1;aspect=fixed;fillColor=#e1d5e7;strokeColor=#9673a6;fontSize=15;" parent="1" vertex="1">
          <mxGeometry x="320" y="250" width="30" height="30" as="geometry" />
        </mxCell>
        <mxCell id="4m7BQvXgMmx215IZOo3F-66" value="d" style="rounded=0;whiteSpace=wrap;html=1;fillColor=#dae8fc;strokeColor=#6c8ebf;fontSize=15;" parent="1" vertex="1">
          <mxGeometry x="359" y="320" width="20" height="20" as="geometry" />
        </mxCell>
        <mxCell id="4m7BQvXgMmx215IZOo3F-67" value="d" style="rounded=0;whiteSpace=wrap;html=1;fillColor=#e1d5e7;strokeColor=#9673a6;fontSize=15;" parent="1" vertex="1">
          <mxGeometry x="381" y="280" width="20" height="20" as="geometry" />
        </mxCell>
        <mxCell id="4m7BQvXgMmx215IZOo3F-68" value="d" style="rounded=0;whiteSpace=wrap;html=1;fillColor=#f8cecc;strokeColor=#b85450;fontSize=15;" parent="1" vertex="1">
          <mxGeometry x="399" y="320" width="20" height="20" as="geometry" />
        </mxCell>
        <mxCell id="4m7BQvXgMmx215IZOo3F-69" value="" style="endArrow=none;html=1;rounded=0;entryX=0.5;entryY=1;entryDx=0;entryDy=0;exitX=0.5;exitY=0;exitDx=0;exitDy=0;fillColor=#fff2cc;strokeColor=#000000;fontSize=15;" parent="1" source="4m7BQvXgMmx215IZOo3F-66" target="4m7BQvXgMmx215IZOo3F-67" edge="1">
          <mxGeometry width="50" height="50" relative="1" as="geometry">
            <mxPoint x="400" y="431" as="sourcePoint" />
            <mxPoint x="450" y="381" as="targetPoint" />
          </mxGeometry>
        </mxCell>
        <mxCell id="4m7BQvXgMmx215IZOo3F-70" value="" style="endArrow=none;html=1;rounded=0;entryX=0.5;entryY=0;entryDx=0;entryDy=0;exitX=0.5;exitY=1;exitDx=0;exitDy=0;fillColor=#fff2cc;strokeColor=#000000;fontSize=15;" parent="1" source="4m7BQvXgMmx215IZOo3F-67" target="4m7BQvXgMmx215IZOo3F-68" edge="1">
          <mxGeometry width="50" height="50" relative="1" as="geometry">
            <mxPoint x="419" y="381" as="sourcePoint" />
            <mxPoint x="440" y="361" as="targetPoint" />
          </mxGeometry>
        </mxCell>
        <mxCell id="jMGFFOl1yV6VMglBpNrR-13" value="" style="endArrow=none;html=1;rounded=0;exitX=1;exitY=0.25;exitDx=0;exitDy=0;dashed=1;dashPattern=8 8;fontSize=15;" parent="1" source="4m7BQvXgMmx215IZOo3F-68" edge="1">
          <mxGeometry width="50" height="50" relative="1" as="geometry">
            <mxPoint x="426" y="304" as="sourcePoint" />
            <mxPoint x="497" y="274" as="targetPoint" />
          </mxGeometry>
        </mxCell>
        <mxCell id="jMGFFOl1yV6VMglBpNrR-14" value="" style="endArrow=none;html=1;rounded=0;exitX=1;exitY=0.25;exitDx=0;exitDy=0;dashed=1;dashPattern=8 8;fontSize=15;entryX=0;entryY=0.5;entryDx=0;entryDy=0;" parent="1" edge="1">
          <mxGeometry width="50" height="50" relative="1" as="geometry">
            <mxPoint x="910" y="531" as="sourcePoint" />
            <mxPoint x="965" y="511" as="targetPoint" />
          </mxGeometry>
        </mxCell>
        <mxCell id="jMGFFOl1yV6VMglBpNrR-15" value="d" style="rounded=0;whiteSpace=wrap;html=1;fillColor=#f8cecc;strokeColor=#b85450;fontSize=15;" parent="1" vertex="1">
          <mxGeometry x="470" y="360" width="20" height="20" as="geometry" />
        </mxCell>
        <mxCell id="jMGFFOl1yV6VMglBpNrR-19" value="" style="endArrow=none;html=1;rounded=0;exitX=0.5;exitY=0;exitDx=0;exitDy=0;entryX=1.095;entryY=0.776;entryDx=0;entryDy=0;dashed=1;dashPattern=8 8;fontSize=15;entryPerimeter=0;" parent="1" source="4m7BQvXgMmx215IZOo3F-14" target="4m7BQvXgMmx215IZOo3F-44" edge="1">
          <mxGeometry width="50" height="50" relative="1" as="geometry">
            <mxPoint x="455" y="245" as="sourcePoint" />
            <mxPoint x="547.6066017177864" y="289.60660171778636" as="targetPoint" />
          </mxGeometry>
        </mxCell>
        <mxCell id="jMGFFOl1yV6VMglBpNrR-22" value="" style="endArrow=none;html=1;rounded=0;exitX=0.5;exitY=0;exitDx=0;exitDy=0;entryX=0.5;entryY=1;entryDx=0;entryDy=0;dashed=1;dashPattern=8 8;fontSize=15;" parent="1" source="4m7BQvXgMmx215IZOo3F-47" target="4m7BQvXgMmx215IZOo3F-66" edge="1">
          <mxGeometry width="50" height="50" relative="1" as="geometry">
            <mxPoint x="490" y="390" as="sourcePoint" />
            <mxPoint x="540" y="340" as="targetPoint" />
          </mxGeometry>
        </mxCell>
        <mxCell id="jMGFFOl1yV6VMglBpNrR-24" value="" style="endArrow=none;html=1;rounded=0;exitX=1;exitY=0.5;exitDx=0;exitDy=0;entryX=0;entryY=0.75;entryDx=0;entryDy=0;dashed=1;dashPattern=8 8;fontSize=15;" parent="1" source="4m7BQvXgMmx215IZOo3F-47" target="4m7BQvXgMmx215IZOo3F-13" edge="1">
          <mxGeometry width="50" height="50" relative="1" as="geometry">
            <mxPoint x="412.0000000000042" y="442" as="sourcePoint" />
            <mxPoint x="540" y="340" as="targetPoint" />
          </mxGeometry>
        </mxCell>
        <mxCell id="jMGFFOl1yV6VMglBpNrR-25" value="" style="endArrow=none;html=1;rounded=0;exitX=1;exitY=1;exitDx=0;exitDy=0;entryX=0;entryY=0.25;entryDx=0;entryDy=0;dashed=1;dashPattern=8 8;fontSize=15;" parent="1" source="4m7BQvXgMmx215IZOo3F-57" target="4m7BQvXgMmx215IZOo3F-67" edge="1">
          <mxGeometry width="50" height="50" relative="1" as="geometry">
            <mxPoint x="490" y="390" as="sourcePoint" />
            <mxPoint x="540" y="340" as="targetPoint" />
          </mxGeometry>
        </mxCell>
        <mxCell id="jMGFFOl1yV6VMglBpNrR-28" value="" style="endArrow=none;html=1;rounded=0;dashed=1;dashPattern=8 8;fontSize=15;exitX=0.5;exitY=0;exitDx=0;exitDy=0;entryX=0.326;entryY=1.067;entryDx=0;entryDy=0;entryPerimeter=0;" parent="1" source="jMGFFOl1yV6VMglBpNrR-15" edge="1" target="4m7BQvXgMmx215IZOo3F-44">
          <mxGeometry width="50" height="50" relative="1" as="geometry">
            <mxPoint x="465" y="330" as="sourcePoint" />
            <mxPoint x="499" y="310" as="targetPoint" />
          </mxGeometry>
        </mxCell>
        <mxCell id="nYggPRFkDEmlacBb4HZH-1" value="" style="endArrow=none;html=1;rounded=0;exitX=1;exitY=0.5;exitDx=0;exitDy=0;dashed=1;dashPattern=8 8;fontSize=15;" edge="1" parent="1" source="4m7BQvXgMmx215IZOo3F-1">
          <mxGeometry width="50" height="50" relative="1" as="geometry">
            <mxPoint x="386" y="320" as="sourcePoint" />
            <mxPoint x="497" y="270" as="targetPoint" />
          </mxGeometry>
        </mxCell>
      </root>
    </mxGraphModel>
  </diagram>
</mxfile>
